 http://www.silvertorrent.org 
http://silvertorrent.org/index.php?page=torrent-details&id=0fe02803137c26688b6ff18b3a670971b4c7d7b3 
http://www.shotpix.com/images/08096634903738710469.png
 
http://piczend.com/img.php?image=2557_life_of_pi_hxaf.jpeg

Life of Pi 2012 TS XviD READNFO-SHOWTiME (SilverTorrent)

Source:Life.Of.Pi.2012.SILVER.TS.XVID-26K...THX and GREAT JOB

SUBS : Hard Coded English Subs for non english parts 
http://www.imdb.com/title/tt0454876/

Format                           : AVI
Format/Info                      : Audio Video Interleave
File size                        : 1.16 GiB
Duration                         : 2h 4mn
Overall bit rate                 : 1 337 Kbps
Writing library                  : VirtualDub build 33848/release

Video
ID                               : 0
Format                           : MPEG-4 Visual
Format profile                   : Advanced Simple@L5
Format settings, BVOP            : Yes
Format settings, QPel            : No
Format settings, GMC             : No warppoints
Format settings, Matrix          : Default (H.263)
Muxing mode                      : Packed bitstream
Codec ID                         : XVID
Codec ID/Hint                    : XviD
Duration                         : 2h 4mn
Bit rate                         : 1 200 Kbps
Width                            : 670 pixels
Height                           : 358 pixels
Display aspect ratio             : 1.872
Frame rate                       : 25.000 fps
Color space                      : YUV
Chroma subsampling               : 4:2:0
Bit depth                        : 8 bits
Scan type                        : Progressive
Bits/(Pixel*Frame)               : 0.200
Stream size                      : 1.04 GiB (90%)
Writing library                  : XviD 1.2.1 (UTC 2008-12-04)

Audio
ID                               : 1
Format                           : MPEG Audio
Format version                   : Version 1
Format profile                   : Layer 3
Mode                             : Joint stereo
Mode extension                   : MS Stereo
Codec ID                         : 55
Codec ID/Hint                    : MP3
Duration                         : 2h 4mn
Bit rate mode                    : Constant
Bit rate                         : 128 Kbps
Channel(s)                       : 2 channels
Sampling rate                    : 44.1 KHz
Stream size                      : 114 MiB (10%)
Alignment                        : Split accross interleaves
Interleave, duration             : 40 ms (1.00 video frame)
Interleave, preload duration     : 500 ms
Writing library                  : LAME3.98.2

Workdone:
Went with 26k video.. great job by the way. The video source was good but had a few small shanks threw the video, hardly noticeable and small cam movement when the fish where jumping out of the water into the boat. We added a few tweaks in the video. First we rotated video a bit and resized video. Adjusted brightness, contrast, levels, Saturation and used a denoiser. 

The Audio was really nice just took some noise out and threw in a few audio enhancements. 

Enjoy!

Merry Christmas to everyone!  
http://silvertorrent.org/index.php?page=torrent-details&id=0fe02803137c26688b6ff18b3a670971b4c7d7b3 
http://piczend.com/img.php?image=3647_9_wh0b.png
http://piczend.com/img.php?image=0899_10_ybjk.png
http://piczend.com/img.php?image=5153_8_jdsm.png
http://piczend.com/img.php?image=4514_7_m3d2.png
http://piczend.com/img.php?image=2608_6_3bmc.png
http://piczend.com/img.php?image=0762_5_iew8.png
http://piczend.com/img.php?image=3063_3_h8yh.png
http://piczend.com/img.php?image=1226_4_wtdg.png
http://piczend.com/img.php?image=7709_1_fjwv.png
http://piczend.com/img.php?image=3459_2_jf2c.png
 
http://silvertorrent.org/index.php?page=torrent-details&id=0fe02803137c26688b6ff18b3a670971b4c7d7b3